# xmcd
#
# Track frame offsets:
#	150
#	14675
#	27270
#	45182
#	70397
#	83940
#	96197
#	109130
#	122497
#	135247
#	164415
#	178572
#	192312
#	210565
#	224527
#	236262
#	249595
#	262122
#	277202
#
# Disc length: 3880 seconds
#
# Revision: 0
# Processed by: cddbd v1.5.1PL0 Copyright (c) Steve Scherf et al.
# Submitted via: EasyCDDAExtractor 8.2.1.1
#
DISCID=130f2613
DTITLE=Various Artist - Country Meets Soul
DYEAR=1900
DGENRE=Country
TTITLE0=Al Green - I'm So Lonesome I Could Cry
TTITLE1=Brenton Wood - Rainin' Love
TTITLE2=O.V. Wright - No Easy To Say Goodbye
TTITLE3=Al Green - Funny How Time Slips Away
TTITLE4=Charlie Rich - You Win Again
TTITLE5=Otis Clay - I Die A Little Each Day
TTITLE6=Willie Clayton - Say Yes To Love
TTITLE7=Ann Peebles - It Was Joealousy
TTITLE8=Charlie Rich - When Something Is Wrong With My Baby
TTITLE9=Al Gren  - For The Good Times
TTITLE10=Willie Clayton - When I'm Gone
TTITLE11=Charlie Rich - Hurry Up Freight Train
TTITLE12=Syl Johnson - You Don't Know Me
TTITLE13=Al Green - One Woman
TTITLE14=Charlie Rich - To Fool A Fool
TTITLE15=O. - The Time We Have
TTITLE16=Narvel Felts - Since I Met You Baby
TTITLE17=Al Green  - I'll Be Standing By
TTITLE18=Charlie Rich - Wedding Bells
EXTD=
EXTT0=
EXTT1=
EXTT2=
EXTT3=
EXTT4=
EXTT5=
EXTT6=
EXTT7=
EXTT8=
EXTT9=
EXTT10=
EXTT11=
EXTT12=
EXTT13=
EXTT14=
EXTT15=
EXTT16=
EXTT17=
EXTT18=
PLAYORDER=
